<svg xmlns="http://www.w3.org/2000/svg" width="800" height="600"><style></style><rect class="boundary" x="0" y="0" fill="#000" width="800" height="600" data-type="pcb_background" data-pcb-layer="global"/><rect class="pcb-boundary" fill="none" stroke="#fff" stroke-width="0.3" x="139.85596518190596" y="40.33233033549851" width="520.2880696361881" height="519.3353393290031" data-type="pcb_boundary" data-pcb-layer="global"/><rect class="pcb-pad" fill="rgb(200, 52, 52)" x="242.70166518075575" y="499.1692951582449" width="12.099674901251332" height="60.49837450625667" data-type="pcb_smtpad" data-pcb-layer="top"/><rect class="pcb-pad" fill="rgb(200, 52, 52)" x="262.8729122221282" y="499.1692951582449" width="12.099674901251332" height="60.49837450625667" data-type="pcb_smtpad" data-pcb-layer="top"/><rect class="pcb-pad" fill="rgb(200, 52, 52)" x="283.03391485159375" y="499.1692951582449" width="12.099674901251332" height="60.49837450625667" data-type="pcb_smtpad" data-pcb-layer="top"/><rect class="pcb-pad" fill="rgb(200, 52, 52)" x="303.2051618929662" y="499.1692951582449" width="12.099674901251332" height="60.49837450625667" data-type="pcb_smtpad" data-pcb-layer="top"/><rect class="pcb-pad" fill="rgb(200, 52, 52)" x="323.3661645224329" y="499.1692951582449" width="12.099674901251332" height="60.49837450625667" data-type="pcb_smtpad" data-pcb-layer="top"/><rect class="pcb-pad" fill="rgb(200, 52, 52)" x="343.537411563803" y="499.1692951582449" width="12.099674901251332" height="60.49837450625667" data-type="pcb_smtpad" data-pcb-layer="top"/><rect class="pcb-pad" fill="rgb(200, 52, 52)" x="363.6984141932697" y="499.1692951582449" width="12.099674901251332" height="60.49837450625667" data-type="pcb_smtpad" data-pcb-layer="top"/><rect class="pcb-pad" fill="rgb(200, 52, 52)" x="383.869661234641" y="499.1692951582449" width="12.099674901251332" height="60.49837450625667" data-type="pcb_smtpad" data-pcb-layer="top"/><rect class="pcb-pad" fill="rgb(200, 52, 52)" x="404.0306638641077" y="499.1692951582449" width="12.099674901251332" height="60.49837450625667" data-type="pcb_smtpad" data-pcb-layer="top"/><rect class="pcb-pad" fill="rgb(200, 52, 52)" x="424.20191090547894" y="499.1692951582449" width="12.099674901251332" height="60.49837450625667" data-type="pcb_smtpad" data-pcb-layer="top"/><rect class="pcb-pad" fill="rgb(200, 52, 52)" x="444.3629135349468" y="499.1692951582449" width="12.099674901251332" height="60.49837450625667" data-type="pcb_smtpad" data-pcb-layer="top"/><rect class="pcb-pad" fill="rgb(200, 52, 52)" x="464.53416057631694" y="499.1692951582449" width="12.099674901251332" height="60.49837450625667" data-type="pcb_smtpad" data-pcb-layer="top"/><rect class="pcb-pad" fill="rgb(200, 52, 52)" x="484.6951632057836" y="499.1692951582449" width="12.099674901251332" height="60.49837450625667" data-type="pcb_smtpad" data-pcb-layer="top"/><rect class="pcb-pad" fill="rgb(200, 52, 52)" x="504.86641024715493" y="499.1692951582449" width="12.099674901251332" height="60.49837450625667" data-type="pcb_smtpad" data-pcb-layer="top"/><rect class="pcb-pad" fill="rgb(200, 52, 52)" x="525.0274128766205" y="499.1692951582449" width="12.099674901251332" height="60.49837450625667" data-type="pcb_smtpad" data-pcb-layer="top"/><rect class="pcb-pad" fill="rgb(200, 52, 52)" x="545.1986599179929" y="499.1692951582449" width="12.099674901251332" height="60.49837450625667" data-type="pcb_smtpad" data-pcb-layer="top"/><rect class="pcb-pad" fill="rgb(200, 52, 52)" x="599.6456603118373" y="444.7222947644002" width="60.49837450625667" height="12.099674901251332" data-type="pcb_smtpad" data-pcb-layer="top"/><rect class="pcb-pad" fill="rgb(200, 52, 52)" x="599.6456603118373" y="424.55104772302803" width="60.49837450625667" height="12.099674901251332" data-type="pcb_smtpad" data-pcb-layer="top"/><rect class="pcb-pad" fill="rgb(200, 52, 52)" x="599.6456603118373" y="404.39004509356187" width="60.49837450625667" height="12.099674901251332" data-type="pcb_smtpad" data-pcb-layer="top"/><rect class="pcb-pad" fill="rgb(200, 52, 52)" x="599.6456603118373" y="384.2187980521903" width="60.49837450625667" height="12.099674901251332" data-type="pcb_smtpad" data-pcb-layer="top"/><rect class="pcb-pad" fill="rgb(200, 52, 52)" x="599.6456603118373" y="364.05779542272364" width="60.49837450625667" height="12.099674901251332" data-type="pcb_smtpad" data-pcb-layer="top"/><rect class="pcb-pad" fill="rgb(200, 52, 52)" x="599.6456603118373" y="343.8865483813529" width="60.49837450625667" height="12.099674901251332" data-type="pcb_smtpad" data-pcb-layer="top"/><rect class="pcb-pad" fill="rgb(200, 52, 52)" x="599.6456603118373" y="323.7255457518862" width="60.49837450625667" height="12.099674901251332" data-type="pcb_smtpad" data-pcb-layer="top"/><rect class="pcb-pad" fill="rgb(200, 52, 52)" x="599.6456603118373" y="303.5542987105144" width="60.49837450625667" height="12.099674901251332" data-type="pcb_smtpad" data-pcb-layer="top"/><rect class="pcb-pad" fill="rgb(200, 52, 52)" x="599.6456603118373" y="283.3932960810488" width="60.49837450625667" height="12.099674901251332" data-type="pcb_smtpad" data-pcb-layer="top"/><rect class="pcb-pad" fill="rgb(200, 52, 52)" x="599.6456603118373" y="263.22204903967753" width="60.49837450625667" height="12.099674901251332" data-type="pcb_smtpad" data-pcb-layer="top"/><rect class="pcb-pad" fill="rgb(200, 52, 52)" x="599.6456603118373" y="243.06104641021085" width="60.49837450625667" height="12.099674901251332" data-type="pcb_smtpad" data-pcb-layer="top"/><rect class="pcb-pad" fill="rgb(200, 52, 52)" x="599.6456603118373" y="222.88979936883956" width="60.49837450625667" height="12.099674901251332" data-type="pcb_smtpad" data-pcb-layer="top"/><rect class="pcb-pad" fill="rgb(200, 52, 52)" x="599.6456603118373" y="202.72879673937342" width="60.49837450625667" height="12.099674901251332" data-type="pcb_smtpad" data-pcb-layer="top"/><rect class="pcb-pad" fill="rgb(200, 52, 52)" x="599.6456603118373" y="182.5575496980016" width="60.49837450625667" height="12.099674901251332" data-type="pcb_smtpad" data-pcb-layer="top"/><rect class="pcb-pad" fill="rgb(200, 52, 52)" x="599.6456603118373" y="162.3965470685349" width="60.49837450625667" height="12.099674901251332" data-type="pcb_smtpad" data-pcb-layer="top"/><rect class="pcb-pad" fill="rgb(200, 52, 52)" x="599.6456603118373" y="142.2253000271636" width="60.49837450625667" height="12.099674901251332" data-type="pcb_smtpad" data-pcb-layer="top"/><rect class="pcb-pad" fill="rgb(200, 52, 52)" x="545.1986599179929" y="40.332330335498504" width="12.099674901251332" height="60.49837450625667" data-type="pcb_smtpad" data-pcb-layer="top"/><rect class="pcb-pad" fill="rgb(200, 52, 52)" x="525.0274128766205" y="40.332330335498504" width="12.099674901251332" height="60.49837450625667" data-type="pcb_smtpad" data-pcb-layer="top"/><rect class="pcb-pad" fill="rgb(200, 52, 52)" x="504.86641024715493" y="40.332330335498504" width="12.099674901251332" height="60.49837450625667" data-type="pcb_smtpad" data-pcb-layer="top"/><rect class="pcb-pad" fill="rgb(200, 52, 52)" x="484.6951632057836" y="40.332330335498504" width="12.099674901251332" height="60.49837450625667" data-type="pcb_smtpad" data-pcb-layer="top"/><rect class="pcb-pad" fill="rgb(200, 52, 52)" x="464.53416057631694" y="40.332330335498504" width="12.099674901251332" height="60.49837450625667" data-type="pcb_smtpad" data-pcb-layer="top"/><rect class="pcb-pad" fill="rgb(200, 52, 52)" x="444.3629135349468" y="40.332330335498504" width="12.099674901251332" height="60.49837450625667" data-type="pcb_smtpad" data-pcb-layer="top"/><rect class="pcb-pad" fill="rgb(200, 52, 52)" x="424.20191090547894" y="40.332330335498504" width="12.099674901251332" height="60.49837450625667" data-type="pcb_smtpad" data-pcb-layer="top"/><rect class="pcb-pad" fill="rgb(200, 52, 52)" x="404.0306638641077" y="40.332330335498504" width="12.099674901251332" height="60.49837450625667" data-type="pcb_smtpad" data-pcb-layer="top"/><rect class="pcb-pad" fill="rgb(200, 52, 52)" x="383.869661234641" y="40.332330335498504" width="12.099674901251332" height="60.49837450625667" data-type="pcb_smtpad" data-pcb-layer="top"/><rect class="pcb-pad" fill="rgb(200, 52, 52)" x="363.6984141932697" y="40.332330335498504" width="12.099674901251332" height="60.49837450625667" data-type="pcb_smtpad" data-pcb-layer="top"/><rect class="pcb-pad" fill="rgb(200, 52, 52)" x="343.537411563803" y="40.332330335498504" width="12.099674901251332" height="60.49837450625667" data-type="pcb_smtpad" data-pcb-layer="top"/><rect class="pcb-pad" fill="rgb(200, 52, 52)" x="323.3661645224329" y="40.332330335498504" width="12.099674901251332" height="60.49837450625667" data-type="pcb_smtpad" data-pcb-layer="top"/><rect class="pcb-pad" fill="rgb(200, 52, 52)" x="303.2051618929662" y="40.332330335498504" width="12.099674901251332" height="60.49837450625667" data-type="pcb_smtpad" data-pcb-layer="top"/><rect class="pcb-pad" fill="rgb(200, 52, 52)" x="283.03391485159375" y="40.332330335498504" width="12.099674901251332" height="60.49837450625667" data-type="pcb_smtpad" data-pcb-layer="top"/><rect class="pcb-pad" fill="rgb(200, 52, 52)" x="262.8729122221282" y="40.332330335498504" width="12.099674901251332" height="60.49837450625667" data-type="pcb_smtpad" data-pcb-layer="top"/><rect class="pcb-pad" fill="rgb(200, 52, 52)" x="242.70166518075575" y="40.332330335498504" width="12.099674901251332" height="60.49837450625667" data-type="pcb_smtpad" data-pcb-layer="top"/><rect class="pcb-pad" fill="rgb(200, 52, 52)" x="139.855965181906" y="142.2253000271636" width="60.49837450625667" height="12.099674901251332" data-type="pcb_smtpad" data-pcb-layer="top"/><rect class="pcb-pad" fill="rgb(200, 52, 52)" x="139.855965181906" y="162.3965470685349" width="60.49837450625667" height="12.099674901251332" data-type="pcb_smtpad" data-pcb-layer="top"/><rect class="pcb-pad" fill="rgb(200, 52, 52)" x="139.855965181906" y="182.5575496980016" width="60.49837450625667" height="12.099674901251332" data-type="pcb_smtpad" data-pcb-layer="top"/><rect class="pcb-pad" fill="rgb(200, 52, 52)" x="139.855965181906" y="202.72879673937342" width="60.49837450625667" height="12.099674901251332" data-type="pcb_smtpad" data-pcb-layer="top"/><rect class="pcb-pad" fill="rgb(200, 52, 52)" x="139.855965181906" y="222.88979936883956" width="60.49837450625667" height="12.099674901251332" data-type="pcb_smtpad" data-pcb-layer="top"/><rect class="pcb-pad" fill="rgb(200, 52, 52)" x="139.855965181906" y="243.06104641021085" width="60.49837450625667" height="12.099674901251332" data-type="pcb_smtpad" data-pcb-layer="top"/><rect class="pcb-pad" fill="rgb(200, 52, 52)" x="139.855965181906" y="263.22204903967753" width="60.49837450625667" height="12.099674901251332" data-type="pcb_smtpad" data-pcb-layer="top"/><rect class="pcb-pad" fill="rgb(200, 52, 52)" x="139.855965181906" y="283.3932960810488" width="60.49837450625667" height="12.099674901251332" data-type="pcb_smtpad" data-pcb-layer="top"/><rect class="pcb-pad" fill="rgb(200, 52, 52)" x="139.855965181906" y="303.5542987105144" width="60.49837450625667" height="12.099674901251332" data-type="pcb_smtpad" data-pcb-layer="top"/><rect class="pcb-pad" fill="rgb(200, 52, 52)" x="139.855965181906" y="323.7255457518862" width="60.49837450625667" height="12.099674901251332" data-type="pcb_smtpad" data-pcb-layer="top"/><rect class="pcb-pad" fill="rgb(200, 52, 52)" x="139.855965181906" y="343.8865483813529" width="60.49837450625667" height="12.099674901251332" data-type="pcb_smtpad" data-pcb-layer="top"/><rect class="pcb-pad" fill="rgb(200, 52, 52)" x="139.855965181906" y="364.05779542272364" width="60.49837450625667" height="12.099674901251332" data-type="pcb_smtpad" data-pcb-layer="top"/><rect class="pcb-pad" fill="rgb(200, 52, 52)" x="139.855965181906" y="384.2187980521903" width="60.49837450625667" height="12.099674901251332" data-type="pcb_smtpad" data-pcb-layer="top"/><rect class="pcb-pad" fill="rgb(200, 52, 52)" x="139.855965181906" y="404.39004509356187" width="60.49837450625667" height="12.099674901251332" data-type="pcb_smtpad" data-pcb-layer="top"/><rect class="pcb-pad" fill="rgb(200, 52, 52)" x="139.855965181906" y="424.55104772302803" width="60.49837450625667" height="12.099674901251332" data-type="pcb_smtpad" data-pcb-layer="top"/><rect class="pcb-pad" fill="rgb(200, 52, 52)" x="139.855965181906" y="444.7222947644002" width="60.49837450625667" height="12.099674901251332" data-type="pcb_smtpad" data-pcb-layer="top"/><path class="pcb-silkscreen pcb-silkscreen-top" d="M 198.3387516458118 466.1448967199935 L 198.33977608700226 466.1448967199935 L 233.37976256760422 501.1848832005963" fill="none" stroke="#f2eda1" stroke-width="10.244411905216605" stroke-linecap="round" stroke-linejoin="round" data-pcb-component-id="pcb_component_1" data-pcb-silkscreen-path-id="pcb_silkscreen_path_4" data-type="pcb_silkscreen_path" data-pcb-layer="top"/><path class="pcb-silkscreen pcb-silkscreen-top" d="M 601.6612483541882 97.86238649221849 L 566.6212618735863 97.86238649221849" fill="none" stroke="#f2eda1" stroke-width="10.244411905216605" stroke-linecap="round" stroke-linejoin="round" data-pcb-component-id="pcb_component_1" data-pcb-silkscreen-path-id="pcb_silkscreen_path_5" data-type="pcb_silkscreen_path" data-pcb-layer="top"/><path class="pcb-silkscreen pcb-silkscreen-top" d="M 601.6612483541882 97.86238649221849 L 601.6612483541882 132.90339741401206" fill="none" stroke="#f2eda1" stroke-width="10.244411905216605" stroke-linecap="round" stroke-linejoin="round" data-pcb-component-id="pcb_component_1" data-pcb-silkscreen-path-id="pcb_silkscreen_path_6" data-type="pcb_silkscreen_path" data-pcb-layer="top"/><path class="pcb-silkscreen pcb-silkscreen-top" d="M 198.3387516458118 132.90339741401206 L 198.3387516458118 97.86238649221849 L 233.37976256760422 97.86238649221849" fill="none" stroke="#f2eda1" stroke-width="10.244411905216605" stroke-linecap="round" stroke-linejoin="round" data-pcb-component-id="pcb_component_1" data-pcb-silkscreen-path-id="pcb_silkscreen_path_7" data-type="pcb_silkscreen_path" data-pcb-layer="top"/><path class="pcb-silkscreen pcb-silkscreen-top" d="M 233.37976256760422 501.1848832005963 L 198.3387516458118 501.1848832005963 L 198.3387516458118 466.1448967199935" fill="none" stroke="#f2eda1" stroke-width="10.244411905216605" stroke-linecap="round" stroke-linejoin="round" data-pcb-component-id="pcb_component_1" data-pcb-silkscreen-path-id="pcb_silkscreen_path_8" data-type="pcb_silkscreen_path" data-pcb-layer="top"/><path class="pcb-silkscreen pcb-silkscreen-top" d="M 601.6612483541882 466.1448967199935 L 601.6612483541882 501.1848832005963 L 566.6202374323957 501.1848832005963" fill="none" stroke="#f2eda1" stroke-width="10.244411905216605" stroke-linecap="round" stroke-linejoin="round" data-pcb-component-id="pcb_component_1" data-pcb-silkscreen-path-id="pcb_silkscreen_path_9" data-type="pcb_silkscreen_path" data-pcb-layer="top"/><path class="pcb-silkscreen pcb-silkscreen-top" d="M 228.58742667834449 128.11106152475176 L 228.58742667834449 470.93620816806333 L 571.4125733216566 470.93620816806333 L 571.4125733216566 128.11106152475176 L 228.58742667834449 128.11106152475176 Z" fill="none" stroke="#f2eda1" stroke-width="8.066449934167554" stroke-linecap="round" stroke-linejoin="round" data-pcb-component-id="pcb_component_1" data-pcb-silkscreen-path-id="pcb_silkscreen_path_10" data-type="pcb_silkscreen_path" data-pcb-layer="top"/><path class="pcb-silkscreen pcb-silkscreen-top" d="M 266.92508935123647 421.5345806375373 L 258.4176143141094 417.93659961632085 L 254.92796699170836 409.3841169065093 L 258.48990039975195 400.8614864831576 L 267.02753347028784 397.3356645237781 L 275.5651665408249 400.8614864831576 L 279.12709994886853 409.3841169065093 L 275.6374526264675 417.93659961632085 L 267.12997758934046 421.5345806375373" fill="none" stroke="#f2eda1" stroke-width="24.199349802502663" stroke-linecap="round" stroke-linejoin="round" data-pcb-component-id="pcb_component_1" data-pcb-silkscreen-path-id="pcb_silkscreen_arc_11" data-type="pcb_silkscreen_path" data-pcb-layer="top"/><path class="pcb-silkscreen pcb-silkscreen-top" d="M 224.10037426385932 520.9473782069497 L 218.1013008589102 514.8716341025208 L 224.1515963233856 508.8468956905214 L 230.20189178785986 514.8716341025208 L 224.20281838291191 520.9473782069497" fill="none" stroke="#f2eda1" stroke-width="12.099674901251332" stroke-linecap="round" stroke-linejoin="round" data-pcb-component-id="pcb_component_1" data-pcb-silkscreen-path-id="pcb_silkscreen_arc_13" data-type="pcb_silkscreen_path" data-pcb-layer="top"/><polygon class="pcb-cutout pcb-cutout-polygon" points="244.31464783523325,517.7214128979972 244.31464783523325,500.7822778127214 253.18835742753078,500.7822778127214 253.18835742753078,517.7214128979972" fill="#FF26E2" data-type="pcb_cutout" data-pcb-layer="drill"/><polygon class="pcb-cutout pcb-cutout-polygon" points="264.4858948766045,517.7214128979972 264.4858948766045,500.7822778127214 273.35960446890317,500.7822778127214 273.35960446890317,517.7214128979972" fill="#FF26E2" data-type="pcb_cutout" data-pcb-layer="drill"/><polygon class="pcb-cutout pcb-cutout-polygon" points="284.64689750607124,517.7214128979972 284.64689750607124,500.7822778127214 293.5206070983699,500.7822778127214 293.5206070983699,517.7214128979972" fill="#FF26E2" data-type="pcb_cutout" data-pcb-layer="drill"/><polygon class="pcb-cutout pcb-cutout-polygon" points="304.81814454744136,517.7214128979972 304.81814454744136,500.7822778127214 313.69185413974117,500.7822778127214 313.69185413974117,517.7214128979972" fill="#FF26E2" data-type="pcb_cutout" data-pcb-layer="drill"/><polygon class="pcb-cutout pcb-cutout-polygon" points="324.9791471769092,517.7214128979972 324.9791471769092,500.7822778127214 333.8528567692067,500.7822778127214 333.8528567692067,517.7214128979972" fill="#FF26E2" data-type="pcb_cutout" data-pcb-layer="drill"/><polygon class="pcb-cutout pcb-cutout-polygon" points="345.1503942182793,517.7214128979972 345.1503942182793,500.7822778127214 354.02410381057916,500.7822778127214 354.02410381057916,517.7214128979972" fill="#FF26E2" data-type="pcb_cutout" data-pcb-layer="drill"/><polygon class="pcb-cutout pcb-cutout-polygon" points="365.3113968477449,517.7214128979972 365.3113968477449,500.7822778127214 374.1851064400447,500.7822778127214 374.1851064400447,517.7214128979972" fill="#FF26E2" data-type="pcb_cutout" data-pcb-layer="drill"/><polygon class="pcb-cutout pcb-cutout-polygon" points="385.4826438891173,517.7214128979972 385.4826438891173,500.7822778127214 394.35635348141597,500.7822778127214 394.35635348141597,517.7214128979972" fill="#FF26E2" data-type="pcb_cutout" data-pcb-layer="drill"/><polygon class="pcb-cutout pcb-cutout-polygon" points="405.64364651858403,517.7214128979972 405.64364651858403,500.7822778127214 414.5173561108827,500.7822778127214 414.5173561108827,517.7214128979972" fill="#FF26E2" data-type="pcb_cutout" data-pcb-layer="drill"/><polygon class="pcb-cutout pcb-cutout-polygon" points="425.8148935599553,517.7214128979972 425.8148935599553,500.7822778127214 434.6886031522551,500.7822778127214 434.6886031522551,517.7214128979972" fill="#FF26E2" data-type="pcb_cutout" data-pcb-layer="drill"/><polygon class="pcb-cutout pcb-cutout-polygon" points="445.975896189422,517.7214128979972 445.975896189422,500.7822778127214 454.8496057817207,500.7822778127214 454.8496057817207,517.7214128979972" fill="#FF26E2" data-type="pcb_cutout" data-pcb-layer="drill"/><polygon class="pcb-cutout pcb-cutout-polygon" points="466.1471432307933,517.7214128979972 466.1471432307933,500.7822778127214 475.02085282309196,500.7822778127214 475.02085282309196,517.7214128979972" fill="#FF26E2" data-type="pcb_cutout" data-pcb-layer="drill"/><polygon class="pcb-cutout pcb-cutout-polygon" points="486.30814586025883,517.7214128979972 486.30814586025883,500.7822778127214 495.18185545255864,500.7822778127214 495.18185545255864,517.7214128979972" fill="#FF26E2" data-type="pcb_cutout" data-pcb-layer="drill"/><polygon class="pcb-cutout pcb-cutout-polygon" points="506.47939290163123,517.7214128979972 506.47939290163123,500.7822778127214 515.3531024939299,500.7822778127214 515.3531024939299,517.7214128979972" fill="#FF26E2" data-type="pcb_cutout" data-pcb-layer="drill"/><polygon class="pcb-cutout pcb-cutout-polygon" points="526.6403955310968,517.7214128979972 526.6403955310968,500.7822778127214 535.5141051233966,500.7822778127214 535.5141051233966,517.7214128979972" fill="#FF26E2" data-type="pcb_cutout" data-pcb-layer="drill"/><polygon class="pcb-cutout pcb-cutout-polygon" points="546.8116425724693,517.7214128979972 546.8116425724693,500.7822778127214 555.6853521647668,500.7822778127214 555.6853521647668,517.7214128979972" fill="#FF26E2" data-type="pcb_cutout" data-pcb-layer="drill"/><polygon class="pcb-cutout pcb-cutout-polygon" points="601.2586429663145,455.2089870111746 601.2586429663145,446.3352774188762 618.1977780515896,446.3352774188762 618.1977780515896,455.2089870111746" fill="#FF26E2" data-type="pcb_cutout" data-pcb-layer="drill"/><polygon class="pcb-cutout pcb-cutout-polygon" points="601.2586429663145,435.0377399698033 601.2586429663145,426.1640303775046 618.1977780515896,426.1640303775046 618.1977780515896,435.0377399698033" fill="#FF26E2" data-type="pcb_cutout" data-pcb-layer="drill"/><polygon class="pcb-cutout pcb-cutout-polygon" points="601.2586429663145,414.8767373403369 601.2586429663145,406.0030277480382 618.1977780515896,406.0030277480382 618.1977780515896,414.8767373403369" fill="#FF26E2" data-type="pcb_cutout" data-pcb-layer="drill"/><polygon class="pcb-cutout pcb-cutout-polygon" points="601.2586429663145,394.70549029896534 601.2586429663145,385.8317807066667 618.1977780515896,385.8317807066667 618.1977780515896,394.70549029896534" fill="#FF26E2" data-type="pcb_cutout" data-pcb-layer="drill"/><polygon class="pcb-cutout pcb-cutout-polygon" points="601.2586429663145,374.5444876694992 601.2586429663145,365.6707780772005 618.1977780515896,365.6707780772005 618.1977780515896,374.5444876694992" fill="#FF26E2" data-type="pcb_cutout" data-pcb-layer="drill"/><polygon class="pcb-cutout pcb-cutout-polygon" points="601.2586429663145,354.3732406281279 601.2586429663145,345.49953103582925 618.1977780515896,345.49953103582925 618.1977780515896,354.3732406281279" fill="#FF26E2" data-type="pcb_cutout" data-pcb-layer="drill"/><polygon class="pcb-cutout pcb-cutout-polygon" points="601.2586429663145,334.21223799866124 601.2586429663145,325.33852840636314 618.1977780515896,325.33852840636314 618.1977780515896,334.21223799866124" fill="#FF26E2" data-type="pcb_cutout" data-pcb-layer="drill"/><polygon class="pcb-cutout pcb-cutout-polygon" points="601.2586429663145,314.0409909572899 601.2586429663145,305.16728136499125 618.1977780515896,305.16728136499125 618.1977780515896,314.0409909572899" fill="#FF26E2" data-type="pcb_cutout" data-pcb-layer="drill"/><polygon class="pcb-cutout pcb-cutout-polygon" points="601.2586429663145,293.8799883278238 601.2586429663145,285.00627873552514 618.1977780515896,285.00627873552514 618.1977780515896,293.8799883278238" fill="#FF26E2" data-type="pcb_cutout" data-pcb-layer="drill"/><polygon class="pcb-cutout pcb-cutout-polygon" points="601.2586429663145,273.708741286452 601.2586429663145,264.83503169415326 618.1977780515896,264.83503169415326 618.1977780515896,273.708741286452" fill="#FF26E2" data-type="pcb_cutout" data-pcb-layer="drill"/><polygon class="pcb-cutout pcb-cutout-polygon" points="601.2586429663145,253.54773865698525 601.2586429663145,244.67402906468715 618.1977780515896,244.67402906468715 618.1977780515896,253.54773865698525" fill="#FF26E2" data-type="pcb_cutout" data-pcb-layer="drill"/><polygon class="pcb-cutout pcb-cutout-polygon" points="601.2586429663145,233.376491615614 601.2586429663145,224.5027820233159 618.1977780515896,224.5027820233159 618.1977780515896,233.376491615614" fill="#FF26E2" data-type="pcb_cutout" data-pcb-layer="drill"/><polygon class="pcb-cutout pcb-cutout-polygon" points="601.2586429663145,213.21548898614844 601.2586429663145,204.34177939384975 618.1977780515896,204.34177939384975 618.1977780515896,213.21548898614844" fill="#FF26E2" data-type="pcb_cutout" data-pcb-layer="drill"/><polygon class="pcb-cutout pcb-cutout-polygon" points="601.2586429663145,193.04424194477656 601.2586429663145,184.1705323524779 618.1977780515896,184.1705323524779 618.1977780515896,193.04424194477656" fill="#FF26E2" data-type="pcb_cutout" data-pcb-layer="drill"/><polygon class="pcb-cutout pcb-cutout-polygon" points="601.2586429663145,172.88323931531045 601.2586429663145,164.00952972301178 618.1977780515896,164.00952972301178 618.1977780515896,172.88323931531045" fill="#FF26E2" data-type="pcb_cutout" data-pcb-layer="drill"/><polygon class="pcb-cutout pcb-cutout-polygon" points="601.2586429663145,152.7119922739386 601.2586429663145,143.83828268163992 618.1977780515896,143.83828268163992 618.1977780515896,152.7119922739386" fill="#FF26E2" data-type="pcb_cutout" data-pcb-layer="drill"/><polygon class="pcb-cutout pcb-cutout-polygon" points="546.8116425724693,98.26499188009393 546.8116425724693,81.32585679481824 555.6853521647668,81.32585679481824 555.6853521647668,98.26499188009393" fill="#FF26E2" data-type="pcb_cutout" data-pcb-layer="drill"/><polygon class="pcb-cutout pcb-cutout-polygon" points="526.6403955310968,98.26499188009393 526.6403955310968,81.32585679481824 535.5141051233966,81.32585679481824 535.5141051233966,98.26499188009393" fill="#FF26E2" data-type="pcb_cutout" data-pcb-layer="drill"/><polygon class="pcb-cutout pcb-cutout-polygon" points="506.47939290163123,98.26499188009393 506.47939290163123,81.32585679481824 515.3531024939299,81.32585679481824 515.3531024939299,98.26499188009393" fill="#FF26E2" data-type="pcb_cutout" data-pcb-layer="drill"/><polygon class="pcb-cutout pcb-cutout-polygon" points="486.30814586025883,98.26499188009393 486.30814586025883,81.32585679481824 495.18185545255864,81.32585679481824 495.18185545255864,98.26499188009393" fill="#FF26E2" data-type="pcb_cutout" data-pcb-layer="drill"/><polygon class="pcb-cutout pcb-cutout-polygon" points="466.1471432307933,98.26499188009393 466.1471432307933,81.32585679481824 475.02085282309196,81.32585679481824 475.02085282309196,98.26499188009393" fill="#FF26E2" data-type="pcb_cutout" data-pcb-layer="drill"/><polygon class="pcb-cutout pcb-cutout-polygon" points="445.975896189422,98.26499188009393 445.975896189422,81.32585679481824 454.8496057817207,81.32585679481824 454.8496057817207,98.26499188009393" fill="#FF26E2" data-type="pcb_cutout" data-pcb-layer="drill"/><polygon class="pcb-cutout pcb-cutout-polygon" points="425.8148935599553,98.26499188009393 425.8148935599553,81.32585679481824 434.6886031522551,81.32585679481824 434.6886031522551,98.26499188009393" fill="#FF26E2" data-type="pcb_cutout" data-pcb-layer="drill"/><polygon class="pcb-cutout pcb-cutout-polygon" points="405.64364651858403,98.26499188009393 405.64364651858403,81.32585679481824 414.5173561108827,81.32585679481824 414.5173561108827,98.26499188009393" fill="#FF26E2" data-type="pcb_cutout" data-pcb-layer="drill"/><polygon class="pcb-cutout pcb-cutout-polygon" points="385.4826438891173,98.26499188009393 385.4826438891173,81.32585679481824 394.35635348141597,81.32585679481824 394.35635348141597,98.26499188009393" fill="#FF26E2" data-type="pcb_cutout" data-pcb-layer="drill"/><polygon class="pcb-cutout pcb-cutout-polygon" points="365.3113968477449,98.26499188009393 365.3113968477449,81.32585679481824 374.1851064400447,81.32585679481824 374.1851064400447,98.26499188009393" fill="#FF26E2" data-type="pcb_cutout" data-pcb-layer="drill"/><polygon class="pcb-cutout pcb-cutout-polygon" points="345.1503942182793,98.26499188009393 345.1503942182793,81.32585679481824 354.02410381057916,81.32585679481824 354.02410381057916,98.26499188009393" fill="#FF26E2" data-type="pcb_cutout" data-pcb-layer="drill"/><polygon class="pcb-cutout pcb-cutout-polygon" points="324.9791471769092,98.26499188009393 324.9791471769092,81.32585679481824 333.8528567692067,81.32585679481824 333.8528567692067,98.26499188009393" fill="#FF26E2" data-type="pcb_cutout" data-pcb-layer="drill"/><polygon class="pcb-cutout pcb-cutout-polygon" points="304.81814454744136,98.26499188009393 304.81814454744136,81.32585679481824 313.69185413974117,81.32585679481824 313.69185413974117,98.26499188009393" fill="#FF26E2" data-type="pcb_cutout" data-pcb-layer="drill"/><polygon class="pcb-cutout pcb-cutout-polygon" points="284.64689750607124,98.26499188009393 284.64689750607124,81.32585679481824 293.5206070983699,81.32585679481824 293.5206070983699,98.26499188009393" fill="#FF26E2" data-type="pcb_cutout" data-pcb-layer="drill"/><polygon class="pcb-cutout pcb-cutout-polygon" points="264.4858948766045,98.26499188009393 264.4858948766045,81.32585679481824 273.35960446890317,81.32585679481824 273.35960446890317,98.26499188009393" fill="#FF26E2" data-type="pcb_cutout" data-pcb-layer="drill"/><polygon class="pcb-cutout pcb-cutout-polygon" points="244.31464783523325,98.26499188009393 244.31464783523325,81.32585679481824 253.18835742753078,81.32585679481824 253.18835742753078,98.26499188009393" fill="#FF26E2" data-type="pcb_cutout" data-pcb-layer="drill"/><polygon class="pcb-cutout pcb-cutout-polygon" points="181.8022219484104,152.7119922739386 181.8022219484104,143.83828268163992 198.74135703368665,143.83828268163992 198.74135703368665,152.7119922739386" fill="#FF26E2" data-type="pcb_cutout" data-pcb-layer="drill"/><polygon class="pcb-cutout pcb-cutout-polygon" points="181.8022219484104,172.88323931531045 181.8022219484104,164.00952972301178 198.74135703368665,164.00952972301178 198.74135703368665,172.88323931531045" fill="#FF26E2" data-type="pcb_cutout" data-pcb-layer="drill"/><polygon class="pcb-cutout pcb-cutout-polygon" points="181.8022219484104,193.04424194477656 181.8022219484104,184.1705323524779 198.74135703368665,184.1705323524779 198.74135703368665,193.04424194477656" fill="#FF26E2" data-type="pcb_cutout" data-pcb-layer="drill"/><polygon class="pcb-cutout pcb-cutout-polygon" points="181.8022219484104,213.21548898614844 181.8022219484104,204.34177939384975 198.74135703368665,204.34177939384975 198.74135703368665,213.21548898614844" fill="#FF26E2" data-type="pcb_cutout" data-pcb-layer="drill"/><polygon class="pcb-cutout pcb-cutout-polygon" points="181.8022219484104,233.376491615614 181.8022219484104,224.5027820233159 198.74135703368665,224.5027820233159 198.74135703368665,233.376491615614" fill="#FF26E2" data-type="pcb_cutout" data-pcb-layer="drill"/><polygon class="pcb-cutout pcb-cutout-polygon" points="181.8022219484104,253.54773865698525 181.8022219484104,244.67402906468715 198.74135703368665,244.67402906468715 198.74135703368665,253.54773865698525" fill="#FF26E2" data-type="pcb_cutout" data-pcb-layer="drill"/><polygon class="pcb-cutout pcb-cutout-polygon" points="181.8022219484104,273.708741286452 181.8022219484104,264.83503169415326 198.74135703368665,264.83503169415326 198.74135703368665,273.708741286452" fill="#FF26E2" data-type="pcb_cutout" data-pcb-layer="drill"/><polygon class="pcb-cutout pcb-cutout-polygon" points="181.8022219484104,293.8799883278238 181.8022219484104,285.00627873552514 198.74135703368665,285.00627873552514 198.74135703368665,293.8799883278238" fill="#FF26E2" data-type="pcb_cutout" data-pcb-layer="drill"/><polygon class="pcb-cutout pcb-cutout-polygon" points="181.8022219484104,314.0409909572899 181.8022219484104,305.16728136499125 198.74135703368665,305.16728136499125 198.74135703368665,314.0409909572899" fill="#FF26E2" data-type="pcb_cutout" data-pcb-layer="drill"/><polygon class="pcb-cutout pcb-cutout-polygon" points="181.8022219484104,334.21223799866124 181.8022219484104,325.33852840636314 198.74135703368665,325.33852840636314 198.74135703368665,334.21223799866124" fill="#FF26E2" data-type="pcb_cutout" data-pcb-layer="drill"/><polygon class="pcb-cutout pcb-cutout-polygon" points="181.8022219484104,354.3732406281279 181.8022219484104,345.49953103582925 198.74135703368665,345.49953103582925 198.74135703368665,354.3732406281279" fill="#FF26E2" data-type="pcb_cutout" data-pcb-layer="drill"/><polygon class="pcb-cutout pcb-cutout-polygon" points="181.8022219484104,374.5444876694992 181.8022219484104,365.6707780772005 198.74135703368665,365.6707780772005 198.74135703368665,374.5444876694992" fill="#FF26E2" data-type="pcb_cutout" data-pcb-layer="drill"/><polygon class="pcb-cutout pcb-cutout-polygon" points="181.8022219484104,394.70549029896534 181.8022219484104,385.8317807066667 198.74135703368665,385.8317807066667 198.74135703368665,394.70549029896534" fill="#FF26E2" data-type="pcb_cutout" data-pcb-layer="drill"/><polygon class="pcb-cutout pcb-cutout-polygon" points="181.8022219484104,414.8767373403369 181.8022219484104,406.0030277480382 198.74135703368665,406.0030277480382 198.74135703368665,414.8767373403369" fill="#FF26E2" data-type="pcb_cutout" data-pcb-layer="drill"/><polygon class="pcb-cutout pcb-cutout-polygon" points="181.8022219484104,435.0377399698033 181.8022219484104,426.1640303775046 198.74135703368665,426.1640303775046 198.74135703368665,435.0377399698033" fill="#FF26E2" data-type="pcb_cutout" data-pcb-layer="drill"/><polygon class="pcb-cutout pcb-cutout-polygon" points="181.8022219484104,455.2089870111746 181.8022219484104,446.3352774188762 198.74135703368665,446.3352774188762 198.74135703368665,455.2089870111746" fill="#FF26E2" data-type="pcb_cutout" data-pcb-layer="drill"/></svg>